<svg xmlns="http://www.w3.org/2000/svg">
    <symbol id="check-circle" width="64" height="64" viewBox="0 0 64 64" >
        <path d="M32 1C14.8791 1 1 14.8791 1 32C1 49.1209 14.8791 63 32 63C49.1209 63 63 49.1209 63 32C63 14.8791 49.1209 1 32 1ZM32 7C45.8165 7 57 18.1814 57 32C57 45.8165 45.8186 57 32 57C18.1835 57 7 45.8186 7 32C7 18.1835 18.1814 7 32 7ZM49.5255 23.2834L46.7085 20.4436C46.1251 19.8555 45.1754 19.8516 44.5872 20.4351L26.9182 37.9621L19.4443 30.4275C18.8609 29.8394 17.9111 29.8355 17.323 30.4189L14.4831 33.2359C13.895 33.8192 13.8911 34.769 14.4746 35.3573L25.8223 46.7967C26.4056 47.3849 27.3554 47.3887 27.9435 46.8052L49.5171 25.4048C50.1051 24.8213 50.1089 23.8715 49.5255 23.2834Z" />
    </symbol>

    <symbol id="facebook" width="40" height="64" viewBox="0 0 40 64" >
        <path d="M34.8925 36L36.67 24.4175H25.5562V16.9013C25.5562 13.7325 27.1087 10.6438 32.0862 10.6438H37.1387V0.7825C37.1387 0.7825 32.5537 0 28.17 0C19.0175 0 13.035 5.5475 13.035 15.59V24.4175H2.86124V36H13.035V64H25.5562V36H34.8925Z" />
    </symbol>

    <symbol id="linkedin" width="56" height="64" viewBox="0 0 56 64" >
        <path d="M52 4H3.9875C1.7875 4 0 5.8125 0 8.0375V55.9625C0 58.1875 1.7875 60 3.9875 60H52C54.2 60 56 58.1875 56 55.9625V8.0375C56 5.8125 54.2 4 52 4ZM16.925 52H8.625V25.275H16.9375V52H16.925ZM12.775 21.625C10.1125 21.625 7.9625 19.4625 7.9625 16.8125C7.9625 14.1625 10.1125 12 12.775 12C15.425 12 17.5875 14.1625 17.5875 16.8125C17.5875 19.475 15.4375 21.625 12.775 21.625ZM48.0375 52H39.7375V39C39.7375 35.9 39.675 31.9125 35.425 31.9125C31.1 31.9125 30.4375 35.2875 30.4375 38.775V52H22.1375V25.275H30.1V28.925H30.2125C31.325 26.825 34.0375 24.6125 38.075 24.6125C46.475 24.6125 48.0375 30.15 48.0375 37.35V52Z" />
    </symbol>

    <symbol id="pinterest" width="62" height="64" viewBox="0 0 62 64" >
        <path d="M62 32C62 49.125 48.125 63 31 63C27.8 63 24.725 62.5125 21.825 61.6125C23.0875 59.55 24.975 56.175 25.675 53.4875C26.05 52.0375 27.6 46.1125 27.6 46.1125C28.6125 48.0375 31.5625 49.675 34.7 49.675C44.05 49.675 50.7875 41.075 50.7875 30.3875C50.7875 20.15 42.425 12.4875 31.675 12.4875C18.3 12.4875 11.1875 21.4625 11.1875 31.25C11.1875 35.8 13.6125 41.4625 17.475 43.2625C18.0625 43.5375 18.375 43.4125 18.5125 42.85C18.6125 42.425 19.1375 40.3125 19.375 39.3375C19.45 39.025 19.4125 38.75 19.1625 38.45C17.9 36.8875 16.875 34.0375 16.875 31.375C16.875 24.5375 22.05 17.925 30.875 17.925C38.4875 17.925 43.825 23.1125 43.825 30.5375C43.825 38.925 39.5875 44.7375 34.075 44.7375C31.0375 44.7375 28.75 42.225 29.4875 39.1375C30.3625 35.45 32.05 31.475 32.05 28.8125C32.05 26.4375 30.775 24.45 28.125 24.45C25.0125 24.45 22.5125 27.6625 22.5125 31.975C22.5125 34.725 23.4375 36.575 23.4375 36.575C23.4375 36.575 20.375 49.55 19.8125 51.975C19.1875 54.65 19.4375 58.425 19.7 60.875C8.175 56.3625 0 45.1375 0 32C0 14.875 13.875 1 31 1C48.125 1 62 14.875 62 32Z" />
    </symbol>

    <symbol id="quote-left" width="64" height="64" viewBox="0 0 64 64" >
        <path d="M58 32H48V24C48 19.5875 51.5875 16 56 16H57C58.6625 16 60 14.6625 60 13V7C60 5.3375 58.6625 4 57 4H56C44.95 4 36 12.95 36 24V54C36 57.3125 38.6875 60 42 60H58C61.3125 60 64 57.3125 64 54V38C64 34.6875 61.3125 32 58 32ZM22 32H12V24C12 19.5875 15.5875 16 20 16H21C22.6625 16 24 14.6625 24 13V7C24 5.3375 22.6625 4 21 4H20C8.95 4 0 12.95 0 24V54C0 57.3125 2.6875 60 6 60H22C25.3125 60 28 57.3125 28 54V38C28 34.6875 25.3125 32 22 32Z" />
    </symbol>

    <symbol id="search" width="16" height="16" viewBox="0 0 64 64" >
        <g clip-path="url(#clip0_1_152)">
            <path d="M63.1296 55.3321L50.6662 42.8708C50.1037 42.3084 49.3411 41.9959 48.541 41.9959H46.5034C49.9537 37.5838 52.0038 32.0344 52.0038 25.9975C52.0038 11.6364 40.3655 0 26.0019 0C11.6384 0 0 11.6364 0 25.9975C0 40.3586 11.6384 51.9949 26.0019 51.9949C32.0398 51.9949 37.5903 49.9451 42.0031 46.4955V48.5328C42.0031 49.3327 42.3156 50.0951 42.8781 50.6576L55.3416 63.1188C56.5166 64.2937 58.4168 64.2937 59.5794 63.1188L63.1171 59.5817C64.2922 58.4068 64.2922 56.507 63.1296 55.3321ZM26.0019 41.9959C17.1638 41.9959 10.0007 34.8466 10.0007 25.9975C10.0007 17.1608 17.1513 9.99902 26.0019 9.99902C34.84 9.99902 42.0031 17.1483 42.0031 25.9975C42.0031 34.8341 34.8526 41.9959 26.0019 41.9959Z" />
        </g>
        <defs>
            <clipPath>
                <rect width="16" height="16" fill="white"/>
            </clipPath>
        </defs>
    </symbol>

    <symbol id="thumbs-up" width="64" height="64" viewBox="0 0 64 64" >
        <path d="M58.2837 35.8363C59.38 33.98 60 32 60 29.6063C60 24.1044 55.3477 18.9088 49.2725 18.9088H44.7125C45.3275 17.3075 45.8187 15.3925 45.8187 13.0913C45.8187 3.992 41.1075 0 33.91 0C26.2091 0 26.6484 11.8666 24.94 13.575C22.0966 16.4184 18.7381 21.8809 16.345 24H4C1.79087 24 0 25.7909 0 28V58C0 60.2091 1.79087 62 4 62H12C13.8616 62 15.426 60.7282 15.8722 59.0062C21.4359 59.1314 25.2547 63.9987 38.0975 63.9987C39 63.9987 40 64 40.875 64C50.5146 64 54.8732 59.0721 54.9925 52.0838C56.6574 49.7806 57.5299 46.6935 57.16 43.71C58.3918 41.4035 58.868 38.6671 58.2837 35.8363ZM50.565 42.565C52.135 45.2062 50.7225 48.7412 48.8225 49.7612C49.785 55.8587 46.6215 57.9987 42.1825 57.9987H37.455C28.5001 57.9987 22.7014 53.2713 16 53.2713V30H17.365C20.91 30 25.8625 21.1387 29.1825 17.8175C32.7275 14.2725 31.5462 8.36375 33.91 6C39.8187 6 39.8187 10.1225 39.8187 13.0913C39.8187 17.9875 36.2738 20.1813 36.2738 24.9088H49.2725C51.9112 24.9088 53.9888 27.2725 54 29.6362C54.0112 31.9987 52.3975 34.3625 51.2163 34.3625C52.9024 36.1819 53.2626 40.017 50.565 42.565ZM11 54C11 55.6569 9.65687 57 8 57C6.34312 57 5 55.6569 5 54C5 52.3431 6.34312 51 8 51C9.65687 51 11 52.3431 11 54Z" />
    </symbol>

    <symbol id="twitter" width="64" height="64" viewBox="0 0 64 64" >
        <path d="M57.4212 18.9645C57.4619 19.533 57.4619 20.1016 57.4619 20.6701C57.4619 38.0101 44.264 57.9899 20.1421 57.9899C12.7106 57.9899 5.80713 55.8375 0 52.1016C1.05587 52.2234 2.071 52.264 3.1675 52.264C9.29938 52.264 14.9441 50.193 19.4517 46.66C13.6852 46.5381 8.85275 42.7615 7.18775 37.5635C8 37.6853 8.81213 37.7665 9.665 37.7665C10.8426 37.7665 12.0204 37.604 13.1167 37.3199C7.10662 36.1015 2.59888 30.8224 2.59888 24.4468V24.2844C4.345 25.259 6.37563 25.8681 8.52775 25.9493C4.99475 23.5939 2.68012 19.5736 2.68012 15.0254C2.68012 12.5889 3.32975 10.3554 4.46688 8.40613C10.9237 16.3655 20.6294 21.5634 31.5125 22.132C31.3095 21.1574 31.1876 20.1423 31.1876 19.127C31.1876 11.8985 37.0354 6.01025 44.3044 6.01025C48.081 6.01025 51.4921 7.594 53.8881 10.1524C56.8525 9.58388 59.6951 8.48738 62.213 6.98488C61.2383 10.0306 59.1672 12.589 56.4465 14.2133C59.0861 13.9291 61.6445 13.198 63.9997 12.1829C62.2132 14.7818 59.9796 17.0964 57.4212 18.9645Z" />
    </symbol>

    <symbol id="youtube" width="72" height="64" viewBox="0 0 72 64" >
        <path d="M68.7068 15.5104C67.9217 12.5541 65.6084 10.2259 62.6713 9.43575C57.3475 8 35.9999 8 35.9999 8C35.9999 8 14.6524 8 9.32853 9.43575C6.39141 10.226 4.07816 12.5541 3.29303 15.5104C1.86653 20.8687 1.86653 32.0485 1.86653 32.0485C1.86653 32.0485 1.86653 43.2282 3.29303 48.5866C4.07816 51.5429 6.39141 53.7741 9.32853 54.5643C14.6524 56 35.9999 56 35.9999 56C35.9999 56 57.3474 56 62.6713 54.5643C65.6084 53.7741 67.9217 51.5429 68.7068 48.5866C70.1333 43.2282 70.1333 32.0485 70.1333 32.0485C70.1333 32.0485 70.1333 20.8687 68.7068 15.5104ZM29.018 42.1989V21.8981L46.8604 32.0488L29.018 42.1989Z" />
    </symbol>

    <symbol id="logo" width="163" height="19" viewBox="0 0 163 19" >
        <path d="M5.464 1.336C7.304 1.336 8.768 1.712 9.856 2.464C10.944 3.2 11.488 4.304 11.488 5.776C11.488 6.672 11.296 7.448 10.912 8.104C10.544 8.76 10.032 9.288 9.376 9.688C10.288 10.12 11.008 10.688 11.536 11.392C12.064 12.08 12.328 12.88 12.328 13.792C12.328 14.752 12.152 15.568 11.8 16.24C11.464 16.896 11 17.432 10.408 17.848C9.832 18.248 9.176 18.544 8.44 18.736C7.704 18.912 6.944 19 6.16 19H0.28V1.336H5.464ZM5.872 8.56C6.56 8.56 7.064 8.352 7.384 7.936C7.72 7.52 7.888 7.048 7.888 6.52C7.888 5.912 7.68 5.456 7.264 5.152C6.864 4.848 6.32 4.696 5.632 4.696H3.76V8.56H5.872ZM5.992 15.76C6.76 15.76 7.408 15.608 7.936 15.304C8.464 14.984 8.728 14.48 8.728 13.792C8.728 13.28 8.584 12.896 8.296 12.64C8.008 12.368 7.632 12.184 7.168 12.088C6.72 11.976 6.248 11.92 5.752 11.92H3.76V15.76H5.992ZM33.0751 1.336V19H29.5951V11.824H21.6991V19H18.2191V1.336H21.6991V8.464H29.5951V1.336H33.0751ZM45.3773 1.336C47.6013 1.336 49.3053 1.88 50.4893 2.968C51.6893 4.04 52.2893 5.48 52.2893 7.288C52.2893 8.296 52.0733 9.288 51.6413 10.264C51.2253 11.24 50.5133 12.016 49.5053 12.592L53.6093 19H49.5533L45.8333 13.384H43.5053V19H40.0253V1.336H45.3773ZM45.9773 10.024C46.6813 10.024 47.2253 9.88 47.6093 9.592C48.0093 9.288 48.2893 8.936 48.4493 8.536C48.6093 8.12 48.6893 7.744 48.6893 7.408C48.6893 7.216 48.6573 6.976 48.5933 6.688C48.5453 6.384 48.4333 6.08 48.2573 5.776C48.0813 5.472 47.8093 5.216 47.4413 5.008C47.0893 4.8 46.6093 4.696 46.0013 4.696H43.5053V10.024H45.9773ZM57.1891 10.192C57.1891 8.976 57.4211 7.824 57.8851 6.736C58.3491 5.648 58.9891 4.688 59.8051 3.856C60.6371 3.008 61.5971 2.344 62.6851 1.864C63.7731 1.384 64.9411 1.144 66.1891 1.144C67.4211 1.144 68.5811 1.384 69.6691 1.864C70.7571 2.344 71.7171 3.008 72.5491 3.856C73.3971 4.688 74.0531 5.648 74.5171 6.736C74.9971 7.824 75.2371 8.976 75.2371 10.192C75.2371 11.44 74.9971 12.608 74.5171 13.696C74.0531 14.784 73.3971 15.744 72.5491 16.576C71.7171 17.392 70.7571 18.032 69.6691 18.496C68.5811 18.96 67.4211 19.192 66.1891 19.192C64.9411 19.192 63.7731 18.96 62.6851 18.496C61.5971 18.032 60.6371 17.392 59.8051 16.576C58.9891 15.744 58.3491 14.784 57.8851 13.696C57.4211 12.608 57.1891 11.44 57.1891 10.192ZM60.7891 10.192C60.7891 11.232 61.0291 12.184 61.5091 13.048C62.0051 13.896 62.6691 14.576 63.5011 15.088C64.3331 15.584 65.2691 15.832 66.3091 15.832C67.3171 15.832 68.2211 15.584 69.0211 15.088C69.8371 14.576 70.4771 13.896 70.9411 13.048C71.4051 12.184 71.6371 11.232 71.6371 10.192C71.6371 9.12 71.3971 8.16 70.9171 7.312C70.4371 6.448 69.7891 5.768 68.9731 5.272C68.1571 4.76 67.2371 4.504 66.2131 4.504C65.1891 4.504 64.2691 4.76 63.4531 5.272C62.6371 5.768 61.9891 6.448 61.5091 7.312C61.0291 8.16 60.7891 9.12 60.7891 10.192ZM81.1066 19V0.615999H81.1306L90.0826 13.312L99.2506 0.615999H99.2986V19H95.8186V10.576L90.0586 18.76H90.0106L84.4666 11.104V19H81.1066ZM104.272 19L112.24 0.639999H112.432L120.4 19H116.368L115 15.544H109.144L107.704 19H104.272ZM110.368 12.616H113.848L112.144 8.32L110.368 12.616ZM123.1 10.192C123.1 8.976 123.332 7.824 123.796 6.736C124.26 5.648 124.9 4.688 125.716 3.856C126.548 3.008 127.508 2.344 128.596 1.864C129.684 1.384 130.852 1.144 132.1 1.144C133.332 1.144 134.492 1.384 135.58 1.864C136.668 2.344 137.628 3.008 138.46 3.856C139.308 4.688 139.964 5.648 140.428 6.736C140.908 7.824 141.148 8.976 141.148 10.192C141.148 11.44 140.908 12.608 140.428 13.696C139.964 14.784 139.308 15.744 138.46 16.576C137.628 17.392 136.668 18.032 135.58 18.496C134.492 18.96 133.332 19.192 132.1 19.192C130.852 19.192 129.684 18.96 128.596 18.496C127.508 18.032 126.548 17.392 125.716 16.576C124.9 15.744 124.26 14.784 123.796 13.696C123.332 12.608 123.1 11.44 123.1 10.192ZM126.7 10.192C126.7 11.232 126.94 12.184 127.42 13.048C127.916 13.896 128.58 14.576 129.412 15.088C130.244 15.584 131.18 15.832 132.22 15.832C133.228 15.832 134.132 15.584 134.932 15.088C135.748 14.576 136.388 13.896 136.852 13.048C137.316 12.184 137.548 11.232 137.548 10.192C137.548 9.12 137.308 8.16 136.828 7.312C136.348 6.448 135.7 5.768 134.884 5.272C134.068 4.76 133.148 4.504 132.124 4.504C131.1 4.504 130.18 4.76 129.364 5.272C128.548 5.768 127.9 6.448 127.42 7.312C126.94 8.16 126.7 9.12 126.7 10.192ZM162.834 19.72L150.474 8.56L150.546 19H147.018V0.639999H147.162L159.498 11.968L159.426 1.336H162.93V19.72H162.834Z" />
    </symbol>

</svg>
