<svg xmlns="http://www.w3.org/2000/svg">

    <symbol id="logo-icon" viewBox="0 0 170 60" fill="none">
        <g clip-path="url(#clip0_107_41)">
            <path d="M35.5886 9.244L31.0194 14.4242L23.0059 7.42084L27.5751 2.24067L35.5886 9.244Z" fill="url(#paint0_linear_107_41)"/>
            <path d="M46.98 33.6818L60.2706 45.2962L50.9704 55.8389L37.6797 44.2243L35.3611 42.1984L44.6616 31.6557L46.98 33.6818Z" fill="#2E8FE7"/>
            <path d="M35.2661 46.9603L38.1923 49.5174L31.1134 57.5419L25.8685 52.9587L27.4151 51.2057L32.9477 44.9341L35.2661 46.9603Z" fill="#2D3DCC"/>
            <path d="M49.8909 25.7277L51.8765 23.4769L57.1211 28.0602L52.5512 33.2405L49.6251 30.6835L52.2093 27.7538L49.8909 25.7277ZM49.6251 30.6835L47.3066 28.6573L49.8909 25.7277L52.2093 27.7538L49.6251 30.6835Z" fill="#1578D3"/>
            <path d="M11.1281 36.9727L9.58183 38.7258L1.56784 31.7226L8.64675 23.698L14.2641 28.607L16.6608 30.7014L11.1281 36.9727Z" fill="#2FD6FF"/>
            <path d="M28.3746 17.4228L19.0742 27.9655L16.6778 25.8711L3.51154 14.3655L12.812 3.82279L25.9782 15.3284L28.3746 17.4228Z" fill="#1578D3"/>
            <path d="M33.6041 11.495L31.0197 14.4244L28.6231 12.3302L23.0057 7.4212L27.5756 2.24086L35.5896 9.24406L33.6041 11.495Z" fill="#94EAFF"/>
            <path d="M17.1557 59.8483L4.0147 48.2777L45.1517 1.54722L58.6879 12.7712L17.1557 59.8483Z" fill="#18B5DC"/>
            <path d="M74.96 20.6H76.4V44H74.96V20.6ZM70.76 20.6H72.2V44H70.76V20.6ZM79.6421 20.6H97.6721V22.04H79.6421V20.6ZM89.9921 23.72H97.6721V25.16H91.4321V44H89.9921V23.72ZM85.8521 25.16H79.6421V23.72H87.2921V44H85.8521V25.16ZM104.896 20.6H106.336V39.11H116.266V40.55H104.896V20.6ZM100.786 20.6H102.226V42.56H116.266V44H100.786V20.6ZM124.12 20.6H125.56V44H124.12V20.6ZM119.92 20.6H121.36V44H119.92V20.6ZM130.962 20.6H146.592V22.04H132.402V44H130.962V20.6ZM135.042 23.72H146.592V25.16H136.482V30.62H145.302V32.06H135.042V23.72ZM135.042 33.62H145.302V35.06H136.482V44H135.042V33.62ZM150.298 20.6H166.498V22.04H151.738V42.56H167.098V44H150.298V20.6ZM154.318 23.72H166.498V25.16H155.758V29.78H164.968V31.22H154.318V23.72ZM154.318 32.81H164.968V34.25H155.758V39.44H167.098V40.88H154.318V32.81Z" fill="#282528"/>
        </g>
        <defs>
            <linearGradient id="paint0_linear_107_41" x1="-25.5068" y1="1.56486" x2="63.5809" y2="34.9301" gradientUnits="userSpaceOnUse">
                <stop stop-color="#C06FBB"/>
                <stop offset="1" stop-color="#6E4D9B"/>
            </linearGradient>
            <clipPath id="clip0_107_41">
                <rect width="170" height="60" fill="white"/>
            </clipPath>
        </defs>

    </symbol>

    <symbol id="facebook" viewBox="0 0 12 20">
        <path d="M10.7725 11.25L11.3429 7.63047H7.77636V5.28164C7.77636 4.29141 8.27457 3.32617 9.8719
        3.32617H11.4933V0.244531C11.4933 0.244531 10.0219 0 8.61514 0C5.67801 0 3.75816 1.73359 3.75816
        4.87187V7.63047H0.493301V11.25H3.75816V20H7.77636V11.25H10.7725Z"
        />
    </symbol>

    <symbol id="instagram" viewBox="0 0 20 20">
        <path d="M9.99776 15.1277C7.15943 15.1277 4.87002 12.8383 4.87002 10C4.87002 7.16166 7.15943 4.87225 9.99776 4.87225C12.8361
        4.87225 15.1255 7.16166 15.1255 10C15.1255 12.8383 12.8361 15.1277 9.99776 15.1277ZM9.99776 6.6663C8.16356 6.6663 6.66406 
         8.16133 6.66406 10C6.66406 11.8387 8.15909 13.3337 9.99776 13.3337C11.8364 13.3337 13.3315 11.8387 13.3315 10C13.3315 8.16133
         11.832 6.6663 9.99776 6.6663ZM16.5313 15.3375C16.5313 14.6725 15.9958 14.1415 15.3353 14.1415C14.6703 14.1415 14.1392 14.677
         14.1392 15.3375C14.1392 15.998 14.6748 16.5335 15.3353 16.5335C15.9958 16.5335 16.5313 15.998 16.5313 15.3375ZM19.9275
         14.1236C19.8516 15.7258 19.4857 17.1449 18.3119 18.3142C17.1427 19.4834 15.7235 19.8494 14.1214 19.9297C12.4702 20.0234 
        7.52092 20.0234 5.86968 19.9297C4.272 19.8538 2.85284 19.4879 1.67912 18.3186C0.505407 17.1494 0.143921 15.7302 0.0635904
         14.1281C-0.0301283 12.4768 -0.0301283 7.52761 0.0635904 5.87638C0.139458 4.27424 0.505407 2.85507 1.67912 1.68582C2.85284
        0.516567 4.26754 0.15062 5.86968 0.0702896C7.52092 -0.0234299 12.4702 -0.0234299 14.1214 0.0702896C15.7235 0.146156
       17.1427 0.512104 18.3119 1.68582C19.4812 2.85507 19.8471 4.27424 19.9275 5.87638C20.0212 7.52761 
       20.0212 12.4724 19.9275 14.1236ZM17.7943 4.10465C17.4462 3.22995 16.7723 2.55606 15.8931 2.2035C14.5766 
       1.68136 11.4526 1.80185 9.99776 1.80185C8.54289 1.80185 5.41448 1.68582 4.10242 2.2035C3.22771 2.5516 
       2.55383 3.22548 2.20127 4.10465C1.67912 5.42118 1.79962 8.54513 1.79962 10C1.79962 11.4549 1.68358 
       14.5833 2.20127 15.8953C2.54937 16.7701 3.22325 17.4439 4.10242 17.7965C5.41894 18.3186 8.54289 
       18.1981 9.99776 18.1981C11.4526 18.1981 14.5811 18.3142 15.8931 17.7965C16.7678 17.4484 17.4417 
       16.7745 17.7943 15.8953C18.3164 14.5788 18.1959 11.4549 18.1959 10C18.1959 8.54513 18.3164
        5.41671 17.7943 4.10465Z"/>
    </symbol>

    <symbol id="linkedin" viewBox="0 0 20 20">
        <path d="M4.47667 20H0.330145V6.64702H4.47667V20ZM2.40117 4.82555C1.07525 4.82555 -0.000219345 3.72732 
            -0.000219345 2.40139C-0.000219336 1.7645 0.252784 1.1537 0.703132 0.703352C1.15348 0.253003 1.76428 0 
    2.40117 0C3.03806 0 3.64887 0.253003 4.09921 0.703352C4.54956 1.1537 4.80257 1.7645 4.80257 2.40139C4.80257
    3.72732 3.72665 4.82555 2.40117 4.82555ZM19.9958 20H15.8582V13.4999C15.8582 11.9507 15.8269 9.96406 13.7023 
    9.96406C11.5465 9.96406 11.2161 11.6471 11.2161 13.3882V20H7.07405V6.64702H11.0509V8.46849H11.109C11.6625 7.41936
    13.0148 6.31219 15.0323 6.31219C19.2288 6.31219 20.0002 9.07565 20.0002 12.665V20H19.9958Z" />
    </symbol>

    <symbol id="telegram" viewBox="0 0 20 16">
        <path d="M19.5498 1.45659L16.6524 15.0342C16.4338 15.9924 15.8637 16.2309 15.0536 15.7795L10.639 12.5469L8.50877 
    14.5827C8.27304 14.817 8.07588 15.0129 7.62155 15.0129L7.93872 10.5452L16.1209 3.19851C16.4766 2.88334 16.0437
    2.70873 15.568 3.02389L5.45279 9.35271L1.09811 7.99836C0.150885 7.70449 0.133741 7.05713 1.29527 6.60568L18.3282
    0.0852048C19.1169 -0.208664 19.8069 0.259822 19.5498 1.45659Z" />
    </symbol>

    <symbol id="twitter-icon" viewBox="0 0 20 18">
      <path d="M17.9441 4.92638C17.9568 5.10403 17.9568 5.28173 17.9568 5.45938C17.9568 10.8781 13.8325 17.1218 6.29441
       17.1218C3.97207 17.1218 1.81473 16.4492 0 15.2817C0.329961 15.3198 0.647187 15.3325 0.989844 15.3325C2.90605 15.3325
        4.67004 14.6853 6.07867 13.5812C4.27664 13.5431 2.76648 12.3629 2.24617 10.7386C2.5 10.7766 2.75379 10.802 3.02031
         10.802C3.38832 10.802 3.75637 10.7512 4.09898 10.6624C2.22082 10.2817 0.812148 8.63196 0.812148 6.63958V6.58884C1.35781
          6.89341 1.99238 7.08376 2.66492 7.10911C1.56086 6.37306 0.837539 5.11673 0.837539 3.6954C0.837539 2.93399 1.04055
           2.23603 1.3959 1.62688C3.41367 4.11419 6.44668 5.73853 9.84766 5.91622C9.78422 5.61165 9.74613 5.29442 9.74613
            4.97716C9.74613 2.71825 11.5736 0.878174 13.8451 0.878174C15.0253 0.878174 16.0913 1.3731 16.84 2.17259C17.7664 
            1.99493 18.6547 1.65228 19.4416 1.18274C19.137 2.13454 18.4898 2.93403 17.6395 3.44161C18.4644 3.35282 19.2639 
            3.12435 19.9999 2.80712C19.4416 3.61927 18.7436 4.34259 17.9441 4.92638Z" />
    </symbol>
</svg>