<?xml version="1.0" encoding="utf-8"?>
<!-- Generator: Adobe Illustrator 24.3.0, SVG Export Plug-In . SVG Version: 6.00 Build 0)  -->
<svg version="1.1" id="Layer_1" xmlns="http://www.w3.org/2000/svg" xmlns:xlink="http://www.w3.org/1999/xlink" x="0px" y="0px"
	 viewBox="0 0 1000 1000" style="enable-background:new 0 0 1000 1000;" xml:space="preserve">
<style type="text/css">
	.st0{fill:#333333;}
</style>
<path class="st0" d="M862.5,733.2c0,5.5-0.1,9.7-4.7,11.3H687.9c-1-0.5-1.9-1.2-2.6-2.2c-4.6-5.8-1.3-18-1.3-27.4
	c0.2-72.3,0.5-144.6,0.7-216.9c0.1-34,0.5-68,0.3-101.9c-0.1-21.8-11.6-35.8-33.9-41.4c-17-4.3-33.9-2.5-49.8,4.8
	c-17.6,8-25.4,21.6-25.2,41.5c0.5,62.2-0.1,124.3-0.3,186.5c0,12.3-0.2,24.6-0.3,36.9c-0.1,19.1,10.3,31.2,26.8,38.4
	c4.8,2.1,6.6,4.2,6.5,9.3c-0.2,22.4-0.2,44.8,0,67.3c0,4-1.7,5-4,5.3h-32c-27.6-0.1-55.3-0.1-82.9-0.2c-17-0.1-34-0.4-51-0.2
	c-6.4,0.1-8.8-2.2-8.8-8.9c0.5-87.8,0.8-175.7,1.2-263.5c0.1-26.8,0.2-53.5,0.2-80.3c0-16-10.9-30.4-28.1-36
	c-19.7-6.4-39.2-5.3-58,3.9c-18.8,9.2-23.2,25.1-23.1,44.9c0.6,72.7,0.4,145.3-0.1,218c-0.1,19.2,8.6,31.6,25.3,39
	c6.2,2.8,8.2,6,7.9,13c-0.7,19.5-0.4,39-0.1,58.5c0.2,8-1.8,11.4-10.8,11.3c-63.3-0.5-126.5-0.6-189.8-0.4
	c-9.3,0-11.7-3.4-11.5-11.9c0.5-20.6,0.4-41.2,0.5-61.8c0-2.9-0.7-5.7,3.1-7c27.7-9.4,31-31.3,30.7-56.7
	c-0.7-57.8,0-115.7,0.2-173.5c0-11.9,0.3-23.9,0.1-35.8c-0.3-19.8-9.8-33.3-30.1-40.3c-8.4-2.9-10.6-7-10.2-15.7
	c0.9-23.5,0.9-47,0.4-70.5c-0.1-6.6,1.9-8.3,7.7-8.2c44.5,0.3,88.9,0.5,133.4,0.7c7.6,0,15.3,0.8,22.7,0c6.3-0.7,7.6,2,7.7,7.1
	c0.1,7.5-1.2,15,1,23.4c7.7-3.8,15.1-7.4,22.5-11c41.8-20.8,85.9-29.7,132.4-25.8c23.3,2,45.5,8.5,64.8,22.4c4,2.9,7.2,3.1,11.8,1.5
	c47.8-16.6,97-26.2,147.7-25.2c31,0.6,61.1,6.3,88.6,22c35.4,20.2,51.7,50.9,51.5,91.3c-0.4,62.2-0.3,124.3-0.5,186.5
	c0,22.8,0.5,45.6-0.3,68.3c-0.7,19.4,8.9,31.7,25.2,39.2c6.7,3.1,8,6.3,7.8,13C861.9,694.9,862.3,714.1,862.5,733.2z M882.8,748.7
	c-3,8.2-8.9,14.1-17.3,17.1l-2.7,1l-1.1,0.4h-1.1h-2.8H687.9h-4.2h-1.7l-1.5-0.8l-3.6-2c-3.7-2-6.9-4.7-9.4-7.9
	c-8.9-11.3-7.6-24.9-6.7-34.9c0.2-2.5,0.5-4.9,0.5-6.6c0.2-59.1,0.4-120.6,0.6-174.9l0.1-42c0-10.3,0.1-20.7,0.1-31.1
	c0.1-23.2,0.3-47.2,0.1-70.7c-0.1-11.3-4.5-16.5-16.8-19.6c-4.2-1.1-8.5-1.6-12.7-1.6c-7.4,0-14.9,1.7-22.2,5
	c-9,4.1-12,9.3-11.9,20.7c0.4,45.6,0.1,91.9-0.1,136.6l0,0.5c-0.1,16.5-0.2,33.1-0.2,49.6c0,6.9-0.1,14-0.1,20.8l0,0.1
	c0,5.3-0.1,10.7-0.1,16c0,5.9,1,12.2,13.2,17.5c13.3,5.8,20.2,16.2,20.1,30.2c-0.2,22.4-0.2,44.9,0,66.9
	c0.1,14.9-9.8,26.4-24.1,27.9l-0.9,0.1l-0.3,0h-0.3h-0.9h-32.1l-19.1,0c-21.3-0.1-42.6-0.1-63.8-0.2c-6.2,0-12.4-0.1-18.6-0.1
	c-7.6-0.1-15.4-0.1-23-0.1c-3,0-6.1,0-9.1,0l-0.4,0c-9.4,0-17-2.9-22.7-8.6c-5.7-5.7-8.6-13.5-8.5-23c0.4-74.9,0.7-151.1,1-224.8
	l0.2-38.7l0-8.7c0.1-23.4,0.2-47.6,0.2-71.5c0-6.3-4.9-12-12.5-14.5c-6-2-11.9-2.9-17.6-2.9c-7.9,0-15.8,1.9-23.4,5.7
	c-6.2,3-10.6,6.6-10.4,24.4c0.7,79.2,0.3,158.3-0.1,218.3c-0.1,9.8,2.8,14.2,11.9,18.2c14.7,6.6,21.9,18.1,21.3,34.4
	c-0.7,19.8-0.4,40,0,57.3c0.1,4,0.3,16-8.7,25.2c-6,6.1-14.2,9.2-24.5,9.2l-0.4,0c-42.2-0.3-85.3-0.5-128-0.5
	c-20.4,0-41.1,0-61.6,0.1l-0.2,0c-10.6,0-19.1-3.2-25.2-9.4c-9.1-9.4-8.8-21.6-8.8-25.6c0.4-16.3,0.4-32.9,0.5-49.1
	c0-4.1,0-8.1,0-12.2c0-0.1,0-0.2,0-0.3l0-0.2c-0.6-19.3,12.7-26,18.5-27.9c11-3.7,15.7-8.2,15.4-35c-0.5-41.6-0.3-83.7-0.1-124.5
	l0-0.2c0.1-16.1,0.2-32.8,0.2-49.2c0-4.2,0.1-8.5,0.1-12.7c0.1-7.5,0.1-15.2,0-22.7c-0.1-10.5-4.1-15.5-14.9-19.3
	c-17.6-6.1-26.1-18.9-25.4-37.9c0.8-20.6,0.9-43.2,0.4-69.1c-0.2-9.5,2.5-17.2,8.1-22.9c5.5-5.6,12.9-8.4,22.1-8.4l0.3,0
	c32.2,0.2,64.8,0.4,96.5,0.5c12.3,0.1,24.6,0.1,36.9,0.2c2.7,0,5.3,0.1,7.8,0.2c2.4,0.1,4.7,0.2,6.9,0.2c2.2,0,3.9-0.1,5.5-0.3
	c1.5-0.2,2.9-0.2,4.3-0.2c10.9,0,22.3,5.8,26.6,18.4c36.4-16.9,74.7-25.5,113.8-25.5c7.6,0,15.4,0.3,23.2,1
	c27.4,2.3,51.6,10.2,71.8,23.6c49.8-16.8,96.6-25,143.2-25h0c2.6,0,5.3,0,7.9,0.1c38.8,0.8,71.3,8.9,99.3,24.9
	c42,23.9,63.2,61.3,62.9,111.1c-0.3,44.3-0.3,89.4-0.4,133l0,0.2c0,17.8,0,35.5-0.1,53.3c0,7,0,14.1,0.1,21
	c0.1,15.7,0.2,31.9-0.4,48c-0.3,8.9,2.9,13.7,12,17.8c21.6,9.9,21.2,28.1,21,34c-0.3,13.8-0.1,28,0,41.7c0.1,5,0.1,10.1,0.2,15.1
	C885.1,736.3,885.1,742.3,882.8,748.7z M878.6,733.1c0-5-0.1-10-0.2-15.1c-0.2-13.8-0.3-28,0-41.9c0.2-8.6-1.4-20.8-17.3-28
	c-11.4-5.2-16.2-12.4-15.8-23.9c0.6-16,0.5-32.2,0.4-47.8c0-6.9-0.1-14.1-0.1-21.1c0-17.8,0.1-35.5,0.1-53.3
	c0.1-43.7,0.1-88.8,0.4-133.2c0.3-47.3-19.8-82.8-59.7-105.4c-27.1-15.4-58.6-23.3-96.3-24.1c-2.6-0.1-5.2-0.1-7.8-0.1h0
	c-46.8,0-94,8.4-144.2,25.7c-19.8-13.8-43.8-22-71.3-24.3c-7.5-0.6-15.2-1-22.6-1c-40.8,0-80.6,9.6-118.4,28.4
	c-0.1,0-0.1,0.1-0.2,0.1c-1-15.7-12.3-21.3-21.9-21.3c-1.1,0-2.4,0.1-3.6,0.2c-1.8,0.2-3.8,0.3-6.2,0.3c-2.3,0-4.6-0.1-7.1-0.2
	c-2.4-0.1-5-0.2-7.6-0.2c-12.3-0.1-24.6-0.1-36.9-0.2c-31.6-0.1-64.3-0.3-96.5-0.5l-0.3,0c-2.7,0-11.1,0-17.4,6.5
	c-6.5,6.6-6.3,15.4-6.2,18.2c0.6,26,0.4,48.7-0.4,69.5c-0.6,16.1,6.3,26.4,21,31.5c13.5,4.7,19,12,19.2,25.3c0.1,7.5,0,15.3,0,22.8
	c0,4.2-0.1,8.5-0.1,12.7c0,16.5-0.1,33.2-0.2,49.4c-0.2,40.7-0.5,82.9,0.1,124.3c0.3,26.6-4.1,35.8-19.8,41.2
	c-5.4,1.9-14.5,7.1-14.1,21.6c0,0.2,0,0.4,0,0.7c0,4.1,0,8.1,0,12.2c0,16.2-0.1,32.9-0.5,49.3c-0.1,5.8,0.4,14.3,6.9,21
	c7.3,7.4,17.3,7.4,20.6,7.4l0.2,0c20.5-0.1,41.2-0.1,61.6-0.1c42.7,0,85.8,0.2,128,0.5l0.4,0c3.2,0,12.8,0,19.9-7.2
	c7.1-7.2,6.9-16.9,6.8-20.5c-0.3-17.4-0.6-37.7,0-57.7c0.5-13.6-5.2-22.9-17.5-28.3c-11.4-5.1-15.8-11.9-15.7-24.2
	c0.4-60,0.8-139.1,0.1-218.2c-0.2-19.5,5-25.9,14-30.3c8.6-4.2,17.4-6.3,26.3-6.3c6.4,0,13,1.1,19.6,3.3c10.3,3.4,17,11.5,17,20.6
	c0,23.8-0.1,48-0.2,71.5l0,8.7l-0.2,38.7c-0.3,73.7-0.6,149.9-1,224.8c0,7.7,2.2,13.9,6.6,18.4c4.4,4.4,10.5,6.7,18.1,6.7l0.4,0
	c3,0,6.1,0,9.2,0c7.7,0,15.5,0.1,23.1,0.1c6.2,0.1,12.4,0.1,18.5,0.1c21.3,0.1,42.6,0.1,63.8,0.2l19.1,0h32h0.9l0.9-0.1
	c11.1-1.2,18.5-9.8,18.4-21.5c-0.2-22-0.2-44.5,0-67c0.1-11.3-5.4-19.5-16.2-24.2c-15.1-6.6-17.1-15.6-17.1-23.5
	c0-5.4,0.1-10.8,0.1-16.2c0.1-6.8,0.1-13.8,0.1-20.7c0.1-16.7,0.1-33.5,0.2-50.2c0.2-44.7,0.4-91,0.1-136.5
	c-0.1-14,4.3-21.4,15.7-26.6c8.2-3.7,16.6-5.6,24.9-5.6c4.7,0,9.5,0.6,14.3,1.8c15.1,3.8,21.6,11.5,21.7,25.8
	c0.1,23.6,0,47.6-0.1,70.8c-0.1,10.3-0.1,20.7-0.1,31l-0.1,42c-0.2,57.3-0.4,116.6-0.6,174.9c0,2-0.2,4.5-0.5,7.2
	c-0.9,9.4-2,21.1,5.3,30.3c2,2.6,4.5,4.7,7.5,6.3l3.6,2h4.2h169.9h2.8l2.7-1C878.8,754.1,878.7,738.8,878.6,733.1z"/>
</svg>
